<svg viewBox="0 0 330 200" xmlns="http://www.w3.org/2000/svg"><g><g><g><g><g><line x1="37" y1="59.46908205876788" x2="32" y2="59.46908205876788" style="visibility: inherit;" fill="rgb(0, 0, 0)" stroke="rgb(204, 204, 204)" stroke-width="1px"></line></g><g transform="translate(27, 0)"><text x="0" y="59.46908205876788" dx="0em" dy="0.3em" style="text-anchor: end; visibility: inherit; font-family: &quot;Helvetica Neue&quot;, sans-serif; font-size: 12px; font-weight: 200;" fill="rgb(50, 49, 63)" stroke="none" stroke-width="1px">0.4</text></g><line x1="37" y1="0" x2="37" y2="177" fill="rgb(0, 0, 0)" stroke="rgb(204, 204, 204)" stroke-width="1px"></line></g></g><g transform="translate(37, 0)" clip-path="url(#clip_0)"><clipPath id="clip_0"><rect width="293" height="177"></rect></clipPath><g><g><g><line x1="0" y1="0" x2="0" y2="177" fill="rgb(0, 0, 0)" stroke="rgb(60, 60, 60)" stroke-width="1px" opacity="0.25"></line><line x1="32.55555555555556" y1="0" x2="32.55555555555556" y2="177" fill="rgb(0, 0, 0)" stroke="rgb(60, 60, 60)" stroke-width="1px" opacity="0.25"></line><line x1="65.11111111111111" y1="0" x2="65.11111111111111" y2="177" fill="rgb(0, 0, 0)" stroke="rgb(60, 60, 60)" stroke-width="1px" opacity="0.25"></line><line x1="97.66666666666666" y1="0" x2="97.66666666666666" y2="177" fill="rgb(0, 0, 0)" stroke="rgb(60, 60, 60)" stroke-width="1px" opacity="0.25"></line><line x1="130.22222222222223" y1="0" x2="130.22222222222223" y2="177" fill="rgb(0, 0, 0)" stroke="rgb(60, 60, 60)" stroke-width="1px" opacity="0.25"></line><line x1="162.77777777777777" y1="0" x2="162.77777777777777" y2="177" fill="rgb(0, 0, 0)" stroke="rgb(60, 60, 60)" stroke-width="1px" opacity="0.25"></line><line x1="195.33333333333331" y1="0" x2="195.33333333333331" y2="177" fill="rgb(0, 0, 0)" stroke="rgb(60, 60, 60)" stroke-width="1px" opacity="0.25"></line><line x1="227.88888888888889" y1="0" x2="227.88888888888889" y2="177" fill="rgb(0, 0, 0)" stroke="rgb(60, 60, 60)" stroke-width="1px" opacity="0.25"></line><line x1="260.44444444444446" y1="0" x2="260.44444444444446" y2="177" fill="rgb(0, 0, 0)" stroke="rgb(60, 60, 60)" stroke-width="1px" opacity="0.25"></line><line x1="293" y1="0" x2="293" y2="177" fill="rgb(0, 0, 0)" stroke="rgb(60, 60, 60)" stroke-width="1px" opacity="0.25"></line></g><g><line x1="0" y1="59.46908205876788" x2="293" y2="59.46908205876788" fill="rgb(0, 0, 0)" stroke="rgb(60, 60, 60)" stroke-width="1px" opacity="0.25"></line></g></g></g><g><g><line x1="0" y1="0" x2="0" y2="177" fill="rgb(0, 0, 0)" stroke="rgb(153, 153, 153)" stroke-width="1.5px"></line></g></g><g><g><g><g><g><path stroke="rgb(51, 187, 238)" stroke-width="2px" d="M6.511111111111111,133.7208220702676L13.022222222222222,139.23279026804917L19.53333333333333,165.8926319691501L26.044444444444444,177.7661536635188L32.55555555555556,151.71428571428567L39.06666666666666,116.63775099070645L45.577777777777776,81.64544505931931L52.08888888888889,42.848968027797525L58.6,25.28571428571425L65.11111111111111,12.142313647892024L71.62222222222222,10.991572749178516L78.13333333333333,42.70268359313357L84.64444444444443,58.327636124854436L91.15555555555555,63.50693326402269L97.66666666666666,62.46059634962849L104.17777777777778,58.03666949103007L110.68888888888888,56.87014051372036L117.2,67.0705912582682L123.71111111111111,82.47605584366751L130.22222222222223,88.5212949958033L136.73333333333335,103.64497217024558L143.24444444444444,111.56694363163301L149.75555555555553,118.28112941390228L156.26666666666665,113.62457394410579L162.77777777777777,102.93965444290662L169.28888888888886,108.10667477555143L175.79999999999998,108.43649639699564L182.3111111111111,99.16552927606203L188.82222222222222,90.34246383611696L195.33333333333331,102.1306931481416L201.84444444444443,95.95898174824765L208.35555555555555,100.6503932601466L214.86666666666665,101.24744210528569L221.37777777777777,114.1998391524466L227.88888888888889,112.6915902373158L234.4,125.91137182469717L240.9111111111111,103.59661242126803L247.42222222222222,93.72720645297316L253.93333333333334,100.75304268480194L260.44444444444446,108.44540265610193" style="fill: none;" fill="none"></path></g></g></g></g><g opacity="0.2"><g><g><g><path stroke="rgb(51, 187, 238)" stroke-width="2px" d="M6.511111111111111,133.7208220702676L13.022222222222222,142.5556741269797L19.53333333333333,192.22353315585806L26.044444444444444,191.92559975635203L32.55555555555556,118.76062247077908L39.06666666666666,70.19119101400356L45.577777777777776,33.782213736810064L52.08888888888889,-10.973244353748498L65.11111111111111,-7.038664353752523L71.62222222222222,9.27853045980558L78.13333333333333,92.20214835862802L84.64444444444443,82.21429013743543L91.15555555555555,71.31994492284441L97.66666666666666,60.89451568700332L104.17777777777778,51.44296495055896L110.68888888888888,55.123570370135184L117.2,82.58087984608754L123.71111111111111,106.0696729465781L130.22222222222223,97.66269774555164L136.73333333333335,126.79959988554077L143.24444444444444,123.57723825058197L149.75555555555553,128.44377342909172L156.26666666666665,106.68309569239526L162.77777777777777,87.13840247716568L169.28888888888886,115.91125139367833L175.79999999999998,108.93144676288597L182.3111111111111,85.4296147589715L188.82222222222222,77.26241463836368L195.33333333333331,120.09717008044764L201.84444444444443,86.7773165277886L208.35555555555555,107.73205186583499L214.86666666666665,102.14373248736408L221.37777777777777,133.97204983466474L227.88888888888889,110.43377994511849L234.4,146.09913332423523L240.9111111111111,71.09460554651793L247.42222222222222,79.11618207684323L253.93333333333334,111.39203339091401L260.44444444444446,120.10421546537277" style="fill: none;" fill="none"></path></g></g></g></g></g><g><g><span fill="rgb(0, 0, 0)" stroke="none" stroke-width="1px">Alt + Scroll to Zoom</span></g></g></g><g transform="translate(37, 177)" clip-path="url(#clip_1)"><clipPath id="clip_1"><rect width="293" height="23"></rect></clipPath><g><g><line x1="0" y1="0" x2="0" y2="5" style="visibility: inherit;" fill="rgb(0, 0, 0)" stroke="rgb(204, 204, 204)" stroke-width="1px"></line><line x1="32.55555555555556" y1="0" x2="32.55555555555556" y2="5" style="visibility: inherit;" fill="rgb(0, 0, 0)" stroke="rgb(204, 204, 204)" stroke-width="1px"></line><line x1="65.11111111111111" y1="0" x2="65.11111111111111" y2="5" style="visibility: inherit;" fill="rgb(0, 0, 0)" stroke="rgb(204, 204, 204)" stroke-width="1px"></line><line x1="97.66666666666666" y1="0" x2="97.66666666666666" y2="5" style="visibility: inherit;" fill="rgb(0, 0, 0)" stroke="rgb(204, 204, 204)" stroke-width="1px"></line><line x1="130.22222222222223" y1="0" x2="130.22222222222223" y2="5" style="visibility: inherit;" fill="rgb(0, 0, 0)" stroke="rgb(204, 204, 204)" stroke-width="1px"></line><line x1="162.77777777777777" y1="0" x2="162.77777777777777" y2="5" style="visibility: inherit;" fill="rgb(0, 0, 0)" stroke="rgb(204, 204, 204)" stroke-width="1px"></line><line x1="195.33333333333331" y1="0" x2="195.33333333333331" y2="5" style="visibility: inherit;" fill="rgb(0, 0, 0)" stroke="rgb(204, 204, 204)" stroke-width="1px"></line><line x1="227.88888888888889" y1="0" x2="227.88888888888889" y2="5" style="visibility: inherit;" fill="rgb(0, 0, 0)" stroke="rgb(204, 204, 204)" stroke-width="1px"></line><line x1="260.44444444444446" y1="0" x2="260.44444444444446" y2="5" style="visibility: inherit;" fill="rgb(0, 0, 0)" stroke="rgb(204, 204, 204)" stroke-width="1px"></line><line x1="293" y1="0" x2="293" y2="5" style="visibility: inherit;" fill="rgb(0, 0, 0)" stroke="rgb(204, 204, 204)" stroke-width="1px"></line></g><g transform="translate(0, 8)"><text x="0" y="0" dx="0em" dy="0.95em" style="text-anchor: middle; visibility: hidden; font-family: &quot;Helvetica Neue&quot;, sans-serif; font-size: 12px; font-weight: 200;" fill="rgb(50, 49, 63)" stroke="none" stroke-width="1px">0</text><text x="32.55555555555556" y="0" dx="0em" dy="0.95em" style="text-anchor: middle; visibility: inherit; font-family: &quot;Helvetica Neue&quot;, sans-serif; font-size: 12px; font-weight: 200;" fill="rgb(50, 49, 63)" stroke="none" stroke-width="1px">5</text><text x="65.11111111111111" y="0" dx="0em" dy="0.95em" style="text-anchor: middle; visibility: inherit; font-family: &quot;Helvetica Neue&quot;, sans-serif; font-size: 12px; font-weight: 200;" fill="rgb(50, 49, 63)" stroke="none" stroke-width="1px">10</text><text x="97.66666666666666" y="0" dx="0em" dy="0.95em" style="text-anchor: middle; visibility: inherit; font-family: &quot;Helvetica Neue&quot;, sans-serif; font-size: 12px; font-weight: 200;" fill="rgb(50, 49, 63)" stroke="none" stroke-width="1px">15</text><text x="130.22222222222223" y="0" dx="0em" dy="0.95em" style="text-anchor: middle; visibility: inherit; font-family: &quot;Helvetica Neue&quot;, sans-serif; font-size: 12px; font-weight: 200;" fill="rgb(50, 49, 63)" stroke="none" stroke-width="1px">20</text><text x="162.77777777777777" y="0" dx="0em" dy="0.95em" style="text-anchor: middle; visibility: inherit; font-family: &quot;Helvetica Neue&quot;, sans-serif; font-size: 12px; font-weight: 200;" fill="rgb(50, 49, 63)" stroke="none" stroke-width="1px">25</text><text x="195.33333333333331" y="0" dx="0em" dy="0.95em" style="text-anchor: middle; visibility: inherit; font-family: &quot;Helvetica Neue&quot;, sans-serif; font-size: 12px; font-weight: 200;" fill="rgb(50, 49, 63)" stroke="none" stroke-width="1px">30</text><text x="227.88888888888889" y="0" dx="0em" dy="0.95em" style="text-anchor: middle; visibility: inherit; font-family: &quot;Helvetica Neue&quot;, sans-serif; font-size: 12px; font-weight: 200;" fill="rgb(50, 49, 63)" stroke="none" stroke-width="1px">35</text><text x="260.44444444444446" y="0" dx="0em" dy="0.95em" style="text-anchor: middle; visibility: inherit; font-family: &quot;Helvetica Neue&quot;, sans-serif; font-size: 12px; font-weight: 200;" fill="rgb(50, 49, 63)" stroke="none" stroke-width="1px">40</text><text x="293" y="0" dx="0em" dy="0.95em" style="text-anchor: middle; visibility: hidden; font-family: &quot;Helvetica Neue&quot;, sans-serif; font-size: 12px; font-weight: 200;" fill="rgb(50, 49, 63)" stroke="none" stroke-width="1px">45</text></g><line x1="0" y1="0" x2="293" y2="0" fill="rgb(0, 0, 0)" stroke="rgb(204, 204, 204)" stroke-width="1px"></line></g></g></g></g></svg>